<?xml version="1.0" encoding="UTF-8"?>
<svg id="_Слой_1" data-name="Слой 1" xmlns="http://www.w3.org/2000/svg" viewBox="0 0 16 16">
  <defs>
    <style>
      .cls-1 {
        fill: #072b33;
      }

      .cls-2 {
        fill: #5bf0a6;
      }
    </style>
  </defs>
  <g>
    <path class="cls-1" d="M15.55,5.31c-.17-.49-.39-.96-.65-1.4-.86-1.46-2.17-2.63-3.74-3.31-.1,0-.2-.01-.3-.01-.92,0-1.77.3-2.45.81,0,0-.02.01-.02.02.03,0,.07,0,.1,0,1.89.19,3.46,1.17,4.15,2.64.33.69.45,1.5.35,2.33.16.27.35.54.55.78.1.12.21.24.32.36.05.05.1.1.15.15.02.02.03.04.05.06.07.12.1.24.11.35,0,.08,0,.17-.04.24-.07.19-.22.3-.46.42-.14.07-.29.14-.45.19.01.06.02.13.04.19.02.07.03.13.05.18.04.13.07.24.04.4-.05.29-.26.46-.33.52-.07.05-.13.1-.2.13.11.26.2.63.02,1-.12.26-.32.42-.34.43-.16.13-.32.18-.43.2-.39.1-.81.08-1.15.06-.09,0-.18,0-.26-.01-.27,0-.55.02-.83.07-.24,1.74-1.42,3.19-3.02,3.79.38.06.78.09,1.18.09,4.43,0,8.01-3.59,8.01-8.02,0-.94-.16-1.83-.45-2.67Z"/>
    <path class="cls-1" d="M8.15,7.83s0,0,0,0c.03.03.06.05.09.08.41.36.76.79,1.03,1.27.38.68.6,1.47.6,2.3,0,.03,0,.06,0,.09.27-.04.54-.06.8-.05.09,0,.18,0,.27.01.32.02.67.04.98-.04.06-.02.15-.04.23-.11,0,0,.12-.1.18-.23.16-.35-.14-.76-.15-.77-.06-.08-.07-.18-.03-.27.04-.09.12-.15.22-.16.06,0,.17-.03.28-.11.04-.03.13-.11.15-.2,0-.03,0-.05-.03-.15-.02-.05-.04-.12-.06-.21-.01-.06-.03-.12-.04-.18-.02-.1-.03-.2-.04-.3-.01-.13.07-.25.2-.28.18-.05.24-.07.57-.22.09-.04.2-.09.2-.17,0-.03-.01-.05-.02-.07-.04-.04-.09-.09-.13-.13-.12-.12-.23-.25-.34-.39-.24-.29-.46-.6-.64-.93-.03-.05-.04-.11-.03-.17.1-.77,0-1.49-.29-2.12-.66-1.41-2.29-2.31-4.2-2.36-.05,0-.09,0-.14,0,0,0,0,0,0,0-.67.73-1.07,1.71-1.07,2.77,0,1.24.55,2.36,1.42,3.11Z"/>
  </g>
  <path class="cls-2" d="M7.85,8.37s0,0,0,0c-.03-.03-.06-.05-.09-.08-.41-.36-.76-.79-1.03-1.27-.38-.68-.6-1.47-.6-2.3,0-.99.3-1.91.82-2.67-1.46.28-2.65,1.1-3.2,2.25-.3.63-.4,1.35-.29,2.12,0,.06,0,.12-.03.17-.14.24-.29.46-.45.68-.06.08-.13.17-.19.25-.15.18-.31.36-.47.52-.01.02-.02.04-.02.07,0,.07.11.13.2.17.01,0,.03.01.04.02.3.13.36.15.53.2.13.03.21.15.2.28-.01.16-.04.32-.08.48-.02.09-.04.15-.06.21-.03.11-.03.12-.03.15.02.1.1.17.15.2.1.09.22.11.28.11.1,0,.18.07.22.16.04.09.03.19-.03.27-.01.02-.31.42-.15.77.05.11.14.2.17.22.09.05.18.09.27.13.31.11.55.11,1.04.1.07,0,.14,0,.21,0,.15,0,.3,0,.45,0h0s.23,0,.4.14c.19.16.21.37.21.41-.11,0-.22,0-.34,0-.11,0-.22,0-.33,0-.13,0-.25,0-.38,0-.07,0-.14,0-.21,0-.11,0-.2,0-.3,0-.36,0-.62-.02-.94-.14-.13-.05-.25-.11-.37-.18,0,0-.02-.01-.03-.02-.02-.02-.22-.18-.34-.43-.17-.37-.09-.75.02-1-.07-.03-.13-.08-.2-.13-.07-.06-.28-.23-.33-.52-.03-.16,0-.27.04-.4.01-.05.03-.11.05-.18.02-.06.03-.12.04-.19-.16-.05-.31-.12-.45-.19-.05-.02-.09-.05-.14-.07-.16-.1-.27-.19-.33-.34-.02-.05-.03-.1-.03-.16-.01-.14.02-.29.11-.44.01-.02.03-.04.05-.06.16-.16.32-.33.46-.51.2-.25.39-.51.55-.78-.09-.83.03-1.64.35-2.33.69-1.47,2.27-2.45,4.15-2.64.01,0,.02,0,.04,0,0,0,.01-.01.02-.02.57-.58,1.29-1.02,2.09-1.25-.52-.11-1.05-.16-1.6-.16C3.57,0,0,3.57,0,7.98c0,3.57,2.34,6.59,5.57,7.61,2.07-.21,3.69-1.97,3.69-4.1,0-1.24-.55-2.36-1.42-3.11Z"/>
</svg>